<svg width="130" height="40" viewBox="0 0 130 40" fill="none" xmlns="http://www.w3.org/2000/svg">
<path d="M35.8093 9.13775C31.1879 4.0052 23.2808 3.59081 18.1483 8.21217C15.6113 10.4965 14.227 13.5837 14.034 16.7418C13.7606 16.4175 13.5086 16.1105 13.2818 15.8289C12.9036 15.3592 12.6055 14.9723 12.4075 14.7105C12.3087 14.5798 12.1856 14.4132 12.1403 14.3517C9.97794 11.3495 5.79096 10.6668 2.78745 12.8281C-0.218426 14.991 -0.898092 19.1804 1.26264 22.1832C1.33922 22.2872 1.58235 22.6175 1.71703 22.7956C1.986 23.1513 2.36801 23.6465 2.8422 24.2354C3.78256 25.4032 5.12372 26.9869 6.69507 28.5959C8.23889 30.1768 10.1611 31.9442 12.2719 33.3603C14.229 34.6733 17.185 36.261 20.6304 36.261C24.1471 36.261 27.0689 34.6177 28.9918 33.2321C31.0362 31.7589 32.8308 29.933 34.2374 28.3231C35.6719 26.6813 36.871 25.0694 37.7034 23.8843C38.1237 23.2859 38.5756 22.6051 38.8128 22.2422C38.7775 22.2969 38.8541 22.179 38.8128 22.2422L40.7114 30.158C40.9963 31.5489 41.6522 32.6329 42.6221 33.5943C43.8458 34.8072 45.3725 35.3418 46.6441 35.5933C47.4499 35.7453 48.7586 35.8271 49.3362 35.804C49.9303 35.7802 50.7903 35.6894 51.4888 35.5064C53.1342 35.0453 54.4003 34.0217 55.2663 32.7504L59.5774 25.0968C59.6723 25.5723 59.786 26.0408 59.9196 26.5014C60.4521 28.2234 61.2878 29.8964 62.4365 31.2854C63.6335 32.6675 65.1612 33.8056 66.8313 34.5339C68.5538 35.255 70.4603 35.5822 72.3372 35.5822C73.7468 35.5822 75.227 35.4228 76.6044 34.9173C76.6369 34.9064 76.6726 34.8944 76.6897 34.8884C76.7098 34.8814 76.7297 34.8741 76.7741 34.8579L76.8487 34.8913C76.9247 34.9256 76.9315 34.9287 77.0483 34.9699C78.034 35.3754 78.9914 35.4419 79.6438 35.4419C80.2523 35.4419 81.1667 35.3881 82.1165 35.0291C82.8055 34.7871 83.7596 34.3167 84.5451 33.3737L84.7235 33.145C84.8585 32.9598 84.9846 32.7631 85.0994 32.5557C86.4223 33.7724 87.9986 34.6447 89.7122 35.193C91.4224 35.7295 93.2358 35.9721 95.1165 35.9721C96.5272 35.9721 97.8359 35.8141 99.2265 35.4667C100.69 35.1409 102.09 34.6207 103.344 33.8364C103.525 33.7233 103.713 33.6013 103.904 33.469C104.229 33.9207 104.639 34.3448 105.155 34.717C106.52 35.7034 108.067 35.9721 109.369 35.9721C110.568 35.9721 112.453 35.7979 113.97 34.5651C114.901 33.7984 115.452 32.8605 115.755 31.9312C116.094 32.9353 116.723 33.9057 117.774 34.6642C119.139 35.6506 120.686 35.9194 121.988 35.9194C123.187 35.9194 125.077 35.7407 126.594 34.5079C128.128 33.2452 128.711 31.5393 128.711 29.8592V19.8334C128.711 18.3934 128.545 16.916 128.455 16.3048C128.242 14.5194 127.55 12.9374 126.461 11.5135C125.453 10.2638 124.174 9.23721 122.704 8.56439C121.121 7.77465 119.485 7.55359 117.768 7.55359C116.056 7.55359 114.381 7.88789 112.84 8.65197C111.756 8.09721 110.595 7.85626 109.445 7.85626C108.049 7.85626 105.949 8.19227 104.42 9.81712C104.12 10.1565 103.867 10.5169 103.656 10.8904C101.237 8.55794 98.1558 7.55359 94.745 7.55359C92.591 7.55359 90.4818 7.94725 88.5901 8.85524C86.9234 9.67158 85.464 10.7815 84.2842 12.2016C84.2409 12.1155 84.1957 12.0303 84.1487 11.9461C83.7774 11.24 83.2258 10.5018 82.7062 9.9338C81.4291 8.70011 79.8526 7.61664 78.1694 6.99802C76.5453 6.40112 74.8082 6.16077 73.0461 6.16077C70.8391 6.16077 68.6669 6.55046 66.7055 7.54414C66.117 7.84228 65.5546 8.17752 65.0215 8.55042C64.868 8.32875 64.7013 8.11837 64.524 7.92039C63.3527 6.56355 61.8203 5.90519 60.4167 5.62054C59.3064 5.39538 57.879 5.3199 56.4138 5.97723C54.9896 6.60008 54.0798 7.67741 53.5167 8.60535L50.5457 14.1606L49.9671 11.5815C49.7483 10.2431 49.111 9.06277 48.1578 8.14768C47.0576 7.07377 45.7276 6.62011 44.6882 6.4145C43.3881 6.15737 41.7021 6.09579 40.0638 6.89683C38.5708 7.62677 37.4707 8.88991 36.9842 10.4858C36.7228 10.1586 36.4537 9.84609 36.1809 9.55048L35.8093 9.13775Z" fill="url(#paint0_linear_1917_10651)"/>
<path d="M70.3276 14.3618C69.7574 14.679 69.2974 15.1123 68.9411 15.6702L68.9377 15.6754L68.936 15.6781C68.5694 16.2359 68.2903 16.8951 68.1066 17.6653C67.9367 18.4543 67.8512 19.2722 67.8512 20.12C67.8512 22.2104 68.2555 23.7318 68.9774 24.7672C69.6781 25.7471 70.7279 26.2671 72.251 26.2671C72.9147 26.2671 73.4514 26.1729 73.8782 26.0063L73.8855 26.0035C74.337 25.8331 74.768 25.5675 75.1787 25.1957C75.548 24.8305 75.8376 24.4485 76.0541 24.0506L76.0583 24.0429C76.1796 23.8266 76.2877 23.5757 76.3799 23.2874H73.914C73.1608 23.2874 72.4124 23.1025 71.9792 22.4852L71.9692 22.471L71.9647 22.4637C71.6789 22.0225 71.5252 21.5365 71.5252 21.0178C71.5252 20.3421 71.6922 19.7063 72.1494 19.2434C72.6081 18.779 73.241 18.608 73.914 18.608H79.0941C79.7313 18.608 80.3089 18.8056 80.7646 19.2393C81.2879 19.6981 81.4828 20.3621 81.4828 21.0739V28.677C81.4828 28.8848 81.4615 29.0915 81.4195 29.2963C81.3816 29.5821 81.2699 29.842 81.1034 30.0704L81.0901 30.0886L81.0756 30.106C80.8581 30.3672 80.5611 30.5249 80.263 30.6234C79.9248 30.7604 79.5189 30.8063 79.0941 30.8063C78.6786 30.8063 78.2808 30.7585 77.9442 30.62C77.6578 30.5187 77.3907 30.3673 77.1754 30.1457L77.141 30.1103L77.1119 30.0703C76.9664 29.8706 76.8518 29.6498 76.788 29.4084C76.1761 29.8937 75.494 30.2627 74.7455 30.5143C73.9339 30.8122 72.9389 30.9466 71.7875 30.9466C70.3138 30.9466 68.9833 30.7102 67.81 30.2191L67.8005 30.2151C66.6353 29.707 65.6407 28.9815 64.8254 28.0401L64.815 28.028C64.0226 27.0698 63.4281 25.929 63.023 24.6188L63.0194 24.6071C62.6343 23.2794 62.4466 21.8001 62.4466 20.1761C62.4466 18.8436 62.6181 17.5303 62.9606 16.2377L62.9624 16.2311C63.3301 14.8966 63.914 13.7014 64.7172 12.6532L64.7221 12.6468C65.5529 11.5883 66.6073 10.7396 67.8731 10.0983C69.1756 9.43845 70.7258 9.12514 72.4963 9.12514C73.9215 9.12514 75.1968 9.32046 76.3088 9.72913C77.4299 10.1412 78.4652 10.8157 79.4158 11.7341L79.4313 11.7491L79.4459 11.765C79.7705 12.1199 80.0404 12.5012 80.2514 12.9093C80.5048 13.3433 80.6377 13.8144 80.6377 14.3125C80.6377 14.9954 80.3968 15.6013 79.9221 16.0898L79.909 16.1034C79.4204 16.5797 78.8032 16.8065 78.1126 16.8065C77.5683 16.8065 77.05 16.6577 76.6501 16.2778C76.4167 16.0561 76.1191 15.7777 75.7568 15.4422L75.7464 15.4325C75.4669 15.1629 75.2098 14.9338 74.9744 14.7434L74.9527 14.7259L74.9325 14.7067C74.7377 14.5217 74.5316 14.3708 74.3141 14.2515C74.1079 14.1383 73.8636 14.0476 73.5753 13.9851L73.552 13.9801L73.5406 13.9767C73.2722 13.904 72.9193 13.8607 72.4691 13.8607C71.6012 13.8607 70.8986 14.0371 70.3334 14.3585L70.3324 14.3591L70.3276 14.3618Z" fill="white"/>
<path fill-rule="evenodd" clip-rule="evenodd" d="M90.2985 30.7312L90.2998 30.7316C91.5884 31.1359 93.0113 31.3366 94.5664 31.3366C95.6502 31.3366 96.7453 31.198 97.8512 30.9218C98.9845 30.6697 99.9625 30.2899 100.781 29.7784C101.384 29.4017 101.831 29.0379 102.104 28.6841C102.408 28.2962 102.561 27.8497 102.561 27.353C102.561 26.6759 102.329 26.0662 101.875 25.5312C101.424 25.0014 100.907 24.7066 100.324 24.7066C99.8427 24.7066 99.4151 24.8138 99.0505 25.0381C98.7338 25.233 98.3923 25.4283 98.0256 25.6239L96.6208 26.3263C96.115 26.5553 95.4825 26.6751 94.715 26.6751C93.2706 26.6751 92.1824 26.3244 91.4185 25.6535C90.6566 24.9843 90.1852 23.9683 90.0304 22.5709H100.546C101.358 22.5709 102.016 22.4325 102.49 22.1267C103.028 21.7968 103.267 21.2085 103.267 20.4444C103.267 17.2865 102.452 14.8312 100.789 13.1155C99.1527 11.3781 96.9457 10.518 94.195 10.518C92.4841 10.518 90.9874 10.8199 89.7117 11.4323L89.71 11.4331C88.4693 12.0408 87.4393 12.8408 86.6241 13.8343C85.811 14.8252 85.215 15.9675 84.8353 17.2584C84.4574 18.5182 84.2686 19.8157 84.2686 21.1501C84.2686 22.8793 84.5065 24.3936 84.9889 25.6883L84.9894 25.6897C85.471 26.9569 86.1579 28.0152 87.0529 28.859C87.947 29.7021 89.0305 30.3255 90.2985 30.7312ZM96.7623 16.0952C96.4892 15.7538 96.1344 15.4777 95.6928 15.2685C95.2609 15.0639 94.7272 14.9566 94.0836 14.9566C93.0702 14.9566 92.1944 15.2613 91.4456 15.8692C90.787 16.4222 90.3743 17.2178 90.2226 18.2809H97.6329C97.6118 17.9384 97.5442 17.5947 97.4291 17.2493C97.2906 16.8338 97.071 16.4517 96.7681 16.1022L96.7623 16.0952Z" fill="white"/>
<path d="M124.146 16.0187C124.015 14.9178 123.607 13.9205 122.927 13.0305L122.923 13.0257C122.272 12.2179 121.488 11.6029 120.573 11.1838C119.674 10.7354 118.552 10.518 117.219 10.518C115.822 10.518 114.594 10.8287 113.544 11.4586C113.23 11.6392 112.406 12.2052 111.619 13.0248C111.579 12.2196 111.312 11.6158 110.752 11.3055C110.208 10.9803 109.587 10.8207 108.895 10.8207C107.912 10.8207 107.152 11.0393 106.683 11.5369L106.678 11.5424C106.256 12.0214 106.053 12.6344 106.053 13.3606V28.9858C106.053 29.7885 106.296 30.4149 106.83 30.8008C107.337 31.1666 108.008 31.3366 108.82 31.3366C109.792 31.3366 110.541 31.1728 111.009 30.7928L111.01 30.7918C111.512 30.3787 111.738 29.7318 111.738 28.9101V19.9865C111.733 19.725 111.815 19.0891 112.009 18.4303C112.357 17.2502 112.986 16.463 114.079 15.9481C114.871 15.5747 116.166 15.338 117.464 15.8573C118.543 16.2887 118.676 18.1787 118.676 19.1113V29.0236C118.676 29.7859 118.915 30.3621 119.449 30.748C119.955 31.1138 120.627 31.2838 121.439 31.2838C122.411 31.2838 123.16 31.12 123.628 30.74L123.629 30.739C124.131 30.3259 124.362 29.7859 124.362 29.0236V18.9978C124.362 17.7959 124.218 16.5109 124.146 16.0187Z" fill="white"/>
<path d="M40.0082 12.4112C39.9436 12.065 39.9126 11.755 39.9371 11.5025C39.9565 11.3017 39.9833 11.1181 40.0186 10.9537C40.1632 10.2813 40.562 9.7786 41.183 9.47497C41.803 9.17185 42.558 9.1399 43.401 9.30664C44.0439 9.43381 44.585 9.66545 44.9658 10.0433C45.3457 10.4039 45.5832 10.8464 45.667 11.3589L48.5121 24.1773L56.2154 9.74111C56.5289 9.22456 56.9135 8.83008 57.3866 8.62319C57.8883 8.39812 58.4757 8.38014 59.1115 8.50908C59.9573 8.68059 60.6456 9.03025 61.1207 9.59484C61.6167 10.1348 61.8304 10.7678 61.6855 11.4592C61.6422 11.6657 61.5683 11.8915 61.4699 12.1336C61.3858 12.3902 61.2526 12.6374 61.0795 12.8753L51.5869 29.7591L51.5757 29.7755C51.1528 30.3964 50.598 30.8199 49.9136 31.0116L49.9059 31.0138C49.5892 31.0968 49.1094 31.1523 48.6342 31.1713C48.1627 31.1902 47.6453 31.1752 47.2483 31.0962L46.8316 31.0298C45.954 30.8562 45.239 30.547 44.7473 30.0597C44.285 29.6015 43.9839 29.0575 43.8564 28.435L40.0082 12.4112Z" fill="white"/>
<path d="M124.362 18.9978C124.362 17.7959 124.218 16.5109 124.146 16.0187C124.015 14.9178 123.607 13.9205 122.927 13.0305L122.923 13.0257C122.272 12.2179 121.488 11.6029 120.573 11.1838C119.674 10.7354 118.552 10.518 117.219 10.518C115.822 10.518 114.594 10.8287 113.544 11.4586C113.23 11.6392 112.406 12.2052 111.619 13.0248C111.579 12.2196 111.312 11.6158 110.752 11.3055C110.208 10.9803 109.587 10.8207 108.895 10.8207C107.912 10.8207 107.152 11.0393 106.683 11.5369L106.678 11.5424C106.256 12.0214 106.053 12.6344 106.053 13.3606V28.9858C106.053 29.7885 106.296 30.4149 106.83 30.8008C107.337 31.1666 108.008 31.3366 108.82 31.3366C109.792 31.3366 110.541 31.1728 111.009 30.7928L111.01 30.7918C111.512 30.3787 111.738 29.7318 111.738 28.9101V19.9865C111.733 19.725 111.815 19.0891 112.009 18.4303C112.357 17.2502 112.986 16.463 114.079 15.9481C114.871 15.5747 116.166 15.338 117.464 15.8573C118.543 16.2887 118.676 18.1787 118.676 19.1113M124.362 18.9978C124.362 20.1997 124.362 26.1825 124.362 29.0236M124.362 18.9978V29.0236M124.362 29.0236C124.362 29.7859 124.131 30.3259 123.629 30.739L123.628 30.74C123.16 31.12 122.411 31.2838 121.439 31.2838C120.627 31.2838 119.955 31.1138 119.449 30.748C118.915 30.3621 118.676 29.7859 118.676 29.0236M118.676 29.0236C118.676 25.8756 118.676 19.4859 118.676 19.1113M118.676 29.0236V19.1113M90.2985 30.7312L90.2998 30.7316C91.5884 31.1359 93.0113 31.3366 94.5664 31.3366C95.6502 31.3366 96.7453 31.198 97.8512 30.9218C98.9845 30.6697 99.9625 30.2899 100.781 29.7784C101.384 29.4017 101.831 29.0379 102.104 28.6841C102.408 28.2962 102.561 27.8497 102.561 27.353C102.561 26.6759 102.329 26.0662 101.875 25.5312C101.424 25.0014 100.907 24.7066 100.324 24.7066C99.8427 24.7066 99.4151 24.8138 99.0505 25.0381C98.7338 25.233 98.3922 25.4283 98.0256 25.6239L96.6208 26.3263C96.115 26.5553 95.4825 26.6751 94.715 26.6751C93.2706 26.6751 92.1824 26.3244 91.4185 25.6535C90.6566 24.9843 90.1852 23.9683 90.0304 22.5709H100.546C101.358 22.5709 102.016 22.4325 102.49 22.1267C103.028 21.7968 103.267 21.2085 103.267 20.4444C103.267 17.2865 102.452 14.8312 100.789 13.1155C99.1527 11.3781 96.9457 10.518 94.195 10.518C92.4841 10.518 90.9874 10.8199 89.7117 11.4323L89.71 11.4331C88.4693 12.0408 87.4393 12.8408 86.6241 13.8343C85.811 14.8252 85.215 15.9675 84.8353 17.2584C84.4574 18.5182 84.2686 19.8157 84.2686 21.1501C84.2686 22.8793 84.5065 24.3936 84.9889 25.6883L84.9894 25.6897C85.471 26.9569 86.1579 28.0152 87.0529 28.859C87.947 29.7021 89.0305 30.3255 90.2985 30.7312ZM96.7623 16.0952C96.4892 15.7538 96.1344 15.4777 95.6928 15.2685C95.2609 15.0639 94.7272 14.9566 94.0836 14.9566C93.0702 14.9566 92.1944 15.2613 91.4456 15.8692C90.787 16.4222 90.3743 17.2178 90.2226 18.2809H97.6329C97.6118 17.9384 97.5442 17.5947 97.429 17.2493C97.2906 16.8338 97.071 16.4517 96.7681 16.1022L96.7623 16.0952ZM70.3276 14.3618C69.7574 14.679 69.2974 15.1123 68.9411 15.6702L68.9377 15.6754L68.936 15.6781C68.5694 16.2359 68.2903 16.8951 68.1066 17.6653C67.9367 18.4543 67.8512 19.2722 67.8512 20.12C67.8512 22.2104 68.2555 23.7318 68.9774 24.7672C69.6781 25.7471 70.7279 26.2671 72.251 26.2671C72.9147 26.2671 73.4514 26.1729 73.8782 26.0063L73.8855 26.0035C74.337 25.8331 74.768 25.5675 75.1787 25.1957C75.548 24.8305 75.8376 24.4485 76.0541 24.0506L76.0583 24.0429C76.1796 23.8266 76.2877 23.5757 76.3799 23.2874H73.914C73.1608 23.2874 72.4124 23.1025 71.9792 22.4852L71.9692 22.471L71.9647 22.4637C71.6789 22.0225 71.5252 21.5365 71.5252 21.0178C71.5252 20.3421 71.6922 19.7063 72.1494 19.2434C72.6081 18.779 73.241 18.608 73.914 18.608H79.0941C79.7313 18.608 80.3089 18.8056 80.7646 19.2393C81.2879 19.6981 81.4828 20.3621 81.4828 21.0739V28.677C81.4828 28.8848 81.4615 29.0915 81.4195 29.2963C81.3816 29.5821 81.2699 29.842 81.1034 30.0704L81.0901 30.0886L81.0756 30.106C80.8581 30.3672 80.5611 30.5249 80.2629 30.6234C79.9248 30.7604 79.5189 30.8063 79.0941 30.8063C78.6786 30.8063 78.2808 30.7585 77.9442 30.62C77.6578 30.5187 77.3907 30.3673 77.1754 30.1457L77.141 30.1103L77.1119 30.0703C76.9664 29.8706 76.8518 29.6498 76.788 29.4084C76.1761 29.8937 75.494 30.2627 74.7455 30.5143C73.9339 30.8122 72.9389 30.9466 71.7875 30.9466C70.3138 30.9466 68.9833 30.7102 67.81 30.2191L67.8005 30.2151C66.6353 29.707 65.6407 28.9815 64.8254 28.0401L64.815 28.028C64.0225 27.0698 63.4281 25.929 63.023 24.6188L63.0194 24.6071C62.6343 23.2794 62.4466 21.8001 62.4466 20.1761C62.4466 18.8436 62.6181 17.5303 62.9606 16.2377L62.9624 16.2311C63.3301 14.8966 63.9141 13.7014 64.7172 12.6532L64.7221 12.6468C65.5529 11.5883 66.6073 10.7396 67.8731 10.0983C69.1756 9.43845 70.7258 9.12514 72.4963 9.12514C73.9215 9.12514 75.1968 9.32046 76.3088 9.72913C77.4299 10.1412 78.4652 10.8157 79.4158 11.7341L79.4313 11.7491L79.4459 11.765C79.7705 12.1199 80.0404 12.5012 80.2514 12.9093C80.5048 13.3433 80.6377 13.8144 80.6377 14.3125C80.6377 14.9954 80.3968 15.6013 79.9221 16.0898L79.909 16.1034C79.4204 16.5797 78.8032 16.8065 78.1126 16.8065C77.5683 16.8065 77.05 16.6577 76.6501 16.2778C76.4167 16.0561 76.1191 15.7777 75.7568 15.4422L75.7464 15.4325C75.4669 15.1629 75.2098 14.9338 74.9744 14.7434L74.9527 14.7259L74.9325 14.7067C74.7377 14.5217 74.5316 14.3708 74.3141 14.2515C74.1079 14.1383 73.8636 14.0476 73.5753 13.9851L73.552 13.9801L73.5406 13.9767C73.2722 13.904 72.9193 13.8607 72.4691 13.8607C71.6012 13.8607 70.8986 14.0371 70.3334 14.3585L70.3324 14.3591L70.3276 14.3618ZM40.0082 12.4112C39.9436 12.065 39.9126 11.755 39.9371 11.5025C39.9565 11.3017 39.9833 11.1181 40.0186 10.9537C40.1632 10.2813 40.562 9.7786 41.183 9.47497C41.803 9.17185 42.558 9.1399 43.401 9.30664C44.0439 9.43381 44.585 9.66545 44.9658 10.0433C45.3457 10.4039 45.5832 10.8464 45.667 11.3589L48.5121 24.1773L56.2154 9.74111C56.5289 9.22456 56.9135 8.83008 57.3866 8.62319C57.8883 8.39812 58.4757 8.38014 59.1115 8.50908C59.9573 8.68059 60.6456 9.03025 61.1207 9.59484C61.6167 10.1348 61.8304 10.7678 61.6855 11.4592C61.6422 11.6657 61.5683 11.8915 61.4699 12.1336C61.3858 12.3902 61.2526 12.6374 61.0795 12.8753L51.5869 29.7591L51.5757 29.7755C51.1528 30.3964 50.598 30.8199 49.9136 31.0116L49.9059 31.0138C49.5892 31.0968 49.1094 31.1523 48.6342 31.1713C48.1627 31.1902 47.6453 31.1752 47.2483 31.0962L46.8316 31.0298C45.954 30.8562 45.239 30.547 44.7473 30.0597C44.285 29.6015 43.9839 29.0575 43.8564 28.435L40.0082 12.4112Z" stroke="url(#paint1_linear_1917_10651)" stroke-width="0.8"/>
<path fill-rule="evenodd" clip-rule="evenodd" d="M20.7254 10.1077C24.0931 7.07536 29.2813 7.34727 32.3136 10.715L32.702 11.1463L32.7067 11.1514C34.4682 13.0538 35.5508 15.3385 35.4998 17.0219L35.4997 17.0256C35.4903 17.4369 35.3745 17.8519 35.1424 18.2287L35.1142 18.274C35.0982 18.2995 35.0758 18.3352 35.047 18.3806C34.989 18.472 34.9054 18.6027 34.7981 18.7669C34.5836 19.095 34.2738 19.5586 33.8846 20.1126C33.1092 21.2165 32.0046 22.6998 30.6992 24.1938C29.4039 25.6762 27.8531 27.2362 26.1778 28.4435C24.546 29.6193 22.5215 30.6609 20.3303 30.6609C18.1643 30.661 16.0808 29.6389 14.3675 28.4894C12.5986 27.3027 10.9089 25.7636 9.47131 24.2916C8.02379 22.8093 6.77513 21.3362 5.89121 20.2385C5.44782 19.6878 5.09273 19.2273 4.84651 18.9018C4.72333 18.7389 4.62719 18.6095 4.56065 18.5192C4.52738 18.4741 4.50149 18.4386 4.48331 18.4137L4.45282 18.3716C4.2397 18.0357 4.10262 17.7967 4.02962 17.3357C3.9216 16.6535 4.09015 15.7821 4.85015 15.1257C5.49553 14.5757 6.34 14.4757 6.9 14.6157C7.62 14.7757 8.03906 15.1457 8.35056 15.5641L8.35126 15.5651L8.35242 15.5667L8.36703 15.5868C8.37994 15.6046 8.40039 15.6325 8.42804 15.6701C8.48336 15.7452 8.56744 15.8584 8.67777 16.0042C8.89856 16.2962 9.22358 16.7178 9.63258 17.2258C10.4535 18.2452 11.5988 19.5949 12.908 20.9354C14.2271 22.2862 15.6568 23.57 17.0437 24.5004C18.4857 25.4678 19.5943 25.8574 20.3303 25.8574C20.8743 25.8574 21.5921 25.6409 22.4654 25.1357L23.0739 24.7836L22.5416 24.3243C22.3735 24.1793 22.2125 24.022 22.0598 23.8523L20.1181 21.6959C17.0858 18.3282 17.3577 13.14 20.7254 10.1077ZM29.8319 17.5245C29.1301 18.5143 28.1781 19.7787 27.0818 21.0334L27.0566 21.0622L26.707 21.4614L23.6977 18.4927L23.6879 18.4817C22.4307 17.0855 22.5434 14.9345 23.9396 13.6774C25.3358 12.4203 27.4868 12.533 28.7439 13.9292L29.1322 14.3605C29.5085 14.7784 29.8306 15.2421 29.9905 15.7596C30.1553 16.2931 30.1392 16.8572 29.8809 17.4384L29.8607 17.4839L29.8319 17.5245Z" fill="#B8FF26"/>
<defs>
<linearGradient id="paint0_linear_1917_10651" x1="128.711" y1="5" x2="114.371" y2="64.0393" gradientUnits="userSpaceOnUse">
<stop stop-color="#10121A"/>
<stop offset="1" stop-color="#0C090D"/>
</linearGradient>
<linearGradient id="paint1_linear_1917_10651" x1="124.362" y1="8.42871" x2="112.783" y2="51.1031" gradientUnits="userSpaceOnUse">
<stop stop-color="#10121A"/>
<stop offset="1" stop-color="#0C090D"/>
</linearGradient>
</defs>
</svg>
